PathFileType	4	(X/Y/Z)	Kaydara																																																																																																																									
DataRate	CameraRate	NumFrames	NumMarkers	Units	OrigDataRate	OrigDataStartFrame	OrigNumFrames																																																																																																																					
30	30	9	41	mm	30	262	349																																																																																																																					
Frame#	Time	EMLA_LFHD			EMLA_RFHD			EMLA_LBHD			EMLA_RBHD			EMLA_LFTShould			EMLA_RFTShould			EMLA_LRRShould			EMLA_RRRShould			EMLA_T10			EMLA_STRN			EMLA_TRUN			EMLA_LSHO			EMLA_LUPA			EMLA_LELB			EMLA_LFRM			EMLA_LWRA			EMLA_LWRB			EMLA_LFIN			EMLA_RSHO			EMLA_RUPA			EMLA_RELB			EMLA_RFRM			EMLA_RWRA			EMLA_RWRB			EMLA_RFIN			EMLA_LFWT			EMLA_RFWT			EMLA_LBWT			EMLA_RBWT			EMLA_LTHI			EMLA_LKNE			EMLA_LSHN			EMLA_LANK			EMLA_LHEE			EMLA_LTOE			EMLA_RTHI			EMLA_RKNE			EMLA_RSHN			EMLA_RANK			EMLA_RHEE			EMLA_RTOE		
		X1	Y1	Z1	X2	Y2	Z2	X3	Y3	Z3	X4	Y4	Z4	X5	Y5	Z5	X6	Y6	Z6	X7	Y7	Z7	X8	Y8	Z8	X9	Y9	Z9	X10	Y10	Z10	X11	Y11	Z11	X12	Y12	Z12	X13	Y13	Z13	X14	Y14	Z14	X15	Y15	Z15	X16	Y16	Z16	X17	Y17	Z17	X18	Y18	Z18	X19	Y19	Z19	X20	Y20	Z20	X21	Y21	Z21	X22	Y22	Z22	X23	Y23	Z23	X24	Y24	Z24	X25	Y25	Z25	X26	Y26	Z26	X27	Y27	Z27	X28	Y28	Z28	X29	Y29	Z29	X30	Y30	Z30	X31	Y31	Z31	X32	Y32	Z32	X33	Y33	Z33	X34	Y34	Z34	X35	Y35	Z35	X36	Y36	Z36	X37	Y37	Z37	X38	Y38	Z38	X39	Y39	Z39	X40	Y40	Z40	X41	Y41	Z41
																																																																																																																												
262	8.71	328.27629	1505.87845	1122.09816	157.94653	1505.90729	1109.72313	350.30788	1595.96771	1003.293	155.95278	1599.9588	989.38141	331.05495	1385.91507	1001.35498	182.15481	1380.22339	1003.90732	327.44907	1431.62277	847.57401	169.49028	1430.02731	850.64522	257.39523	1262.74147	784.89868	253.77361	1316.07391	1039.76624	246.25635	1211.48636	1050.76576	457.62691	1408.14774	946.98723	512.67952	1222.84073	950.58731	527.72717	1080.52261	965.28252	531.115	948.13553	988.87291	459.35402	814.65996	1094.7477	512.90291	788.62373	1032.407	512.94964	765.34798	1098.86551	59.77692	1419.58878	938.06656	-12.13203	1230.63942	919.90898	-37.50712	1093.02895	883.42667	-42.26964	988.18298	877.10045	15.97836	827.49458	988.33794	-27.13431	808.72574	914.83139	-42.26949	779.17694	970.55862	348.71605	962.22969	1014.58939	114.4942	962.64572	995.84938	328.06755	974.64828	808.11234	151.3102	974.68384	809.31511	362.61944	690.46127	833.97659	353.84327	485.28969	882.53281	312.45489	303.52793	887.00172	303.39844	130.95049	807.95013	235.10395	60.18933	738.66524	254.65731	43.47169	937.2139	91.76693	660.51109	898.04214	56.07106	500.97378	1035.46005	95.52987	274.81598	1031.85463	73.59304	123.16943	933.00858	140.89067	76.85408	887.87628	57.34201	46.34159	1066.9812
263	8.743	327.16248	1504.82391	1135.29465	157.07579	1503.40302	1122.62367	348.67245	1594.99039	1016.45317	154.3755	1597.49664	1002.1917	330.79556	1384.02237	1013.3709	181.74955	1378.12943	1015.97282	326.86508	1430.46036	859.90005	168.66261	1428.69797	862.94518	256.87504	1261.45782	797.16743	253.54069	1314.20441	1051.69434	246.18626	1209.5488	1062.41539	457.32693	1406.22162	958.86749	511.89209	1220.6813	959.97154	526.17809	1077.91512	973.11646	527.81643	944.9131	995.30586	453.57719	811.25015	1099.21928	507.08088	785.13466	1036.90849	506.19762	761.11656	1103.10127	59.0755	1417.3024	950.27565	-11.95862	1227.89276	931.81015	-36.65512	1090.29884	895.23926	-41.06212	985.48981	888.61786	17.9397	824.63585	999.22546	-25.28825	806.02646	925.7386	-40.24861	776.16821	981.44516	348.8755	960.95444	1026.53656	114.54457	961.87973	1008.5936	327.16358	973.73199	820.25566	150.55142	973.48946	822.03056	362.44648	690.58594	843.20747	353.58128	484.86145	889.09828	312.14787	302.83886	891.24268	303.32914	131.37658	809.41101	235.02316	61.3793	738.98972	254.64884	43.40759	937.34299	92.32077	659.3866	913.1797	60.08344	500.68516	1053.77159	98.96541	274.61811	1064.37828	74.26656	116.61125	976.76758	140.67498	67.97113	933.44063	61.82222	46.24522	1116.06438
264	8.777	325.33157	1503.18375	1149.01726	155.2614	1500.34042	1136.14662	346.16463	1593.8118	1030.40199	151.7804	1594.66019	1015.91972	330.05348	1381.58493	1025.76683	180.84394	1375.5838	1028.43124	325.72235	1429.18686	872.69783	167.50492	1426.9368	875.75249	255.88745	1260.13733	809.71405	252.91695	1311.7981	1063.92693	245.7201	1207.08145	1074.24789	456.47034	1403.81607	971.13831	510.80505	1218.15399	969.46472	524.47609	1074.85451	980.3054	524.17786	941.1689	1000.98602	446.85699	807.65816	1102.90703	500.38574	781.35147	1040.64087	498.68813	756.41998	1106.45386	58.04335	1414.65973	962.83051	-12.01328	1224.87457	944.34738	-35.90909	1087.11929	907.45781	-39.88422	982.34352	900.60089	19.66898	821.41655	1010.70816	-23.51495	802.90924	937.2422	-38.30368	772.80792	992.77496	348.67558	959.4355	1038.56476	114.37855	960.70625	1021.55396	326.17439	972.81319	832.52312	149.49485	972.28081	834.99504	361.80855	690.64957	852.50748	353.21289	484.40098	895.75851	311.98887	302.26763	895.1989	303.18167	132.0667	810.73341	234.89738	62.66341	739.36874	254.73051	43.50885	937.57187	93.03988	658.1543	927.66312	63.90042	499.77745	1070.42084	102.87208	275.05302	1095.89355	75.63339	111.07109	1019.85229	140.89201	60.21248	978.24127	67.62481	49.00309	1164.44641
265	8.81	322.715	1501.50208	1163.60886	152.79864	1496.77673	1150.28114	342.87449	1592.59888	1045.25734	148.48343	1591.37177	1030.30174	328.87287	1378.83728	1038.55186	179.47447	1372.63092	1041.43837	324.02885	1427.75131	886.00693	165.79384	1424.90036	889.19586	254.37775	1258.65967	822.64061	251.86337	1308.93143	1076.59096	244.93658	1204.16138	1086.53786	455.19382	1401.20941	983.67325	509.32747	1215.504	978.87924	522.32483	1071.70792	987.37198	520.19051	937.4675	1006.49315	439.92546	803.7355	1105.80704	493.78342	777.43637	1043.89053	490.79308	751.68518	1109.3203	56.40143	1411.68518	975.91354	-12.63721	1221.29898	957.2052	-35.48145	1083.4169	920.32326	-38.91611	978.68057	913.16811	21.35024	817.73346	1022.86758	-21.74751	799.1996	949.35791	-36.41116	768.92265	1004.80865	348.23517	957.91992	1050.77209	113.95024	959.00635	1034.77379	324.88976	972.10472	844.7496	148.15483	970.97061	848.15048	361.14613	690.92422	861.84906	352.87853	484.05254	902.37747	311.8829	301.82812	899.11705	302.96703	132.82614	811.91757	234.94755	64.22648	739.77844	254.87185	43.4224	937.79984	93.5302	656.67892	941.4592	67.50262	498.25058	1085.80299	107.17533	276.06457	1125.44067	77.47382	107.06301	1062.75963	141.30801	54.17791	1022.43202	75.59793	52.85919	1211.89796
266	8.843	319.3903	1499.69727	1179.0625	149.54195	1492.93808	1165.12177	338.8689	1591.39587	1061.06224	144.49445	1587.87979	1045.3566	327.2739	1375.67047	1051.80519	177.70639	1369.38782	1054.96498	321.83296	1426.23718	900.12756	163.52795	1422.66739	903.29872	252.39038	1257.1701	836.20087	250.38879	1305.81512	1089.7554	243.65255	1200.91324	1098.93578	453.4589	1398.43628	996.80702	507.13928	1212.72728	988.62122	519.41616	1068.51631	994.81087	515.93712	933.80371	1011.94954	433.01815	799.45267	1108.33305	487.44465	773.46581	1046.82159	483.15819	746.84296	1111.86966	54.20992	1408.25867	989.63203	-13.53782	1217.183	970.81894	-35.31672	1079.05212	934.24149	-38.1913	974.47777	926.81374	23.14379	813.31451	1035.54298	-20.11459	794.88335	962.15714	-34.48163	764.37141	1017.56157	347.53021	956.35307	1063.29643	113.12203	957.02332	1048.18726	323.28503	971.42075	857.0089	146.41388	969.48151	861.53709	360.33546	691.36871	871.29616	352.64759	483.85124	909.1423	311.88276	301.54486	903.20877	303.05691	133.85317	813.44254	234.94221	65.93997	740.42191	254.77736	43.45137	937.79625	93.03736	654.90417	954.54094	70.87783	496.34045	1100.42961	112.11077	277.87432	1153.85277	78.82387	105.56658	1104.93134	142.2162	50.67394	1065.37674	85.38252	56.4326	1257.53197
267	8.877	315.28069	1497.75055	1194.91776	145.50631	1489.30176	1181.03409	333.62614	1590.20782	1077.3027	139.31753	1584.79721	1061.76048	325.07744	1371.48331	1065.03662	175.6176	1365.32852	1068.4568	319.13071	1424.43527	914.70703	160.91722	1420.11688	918.21182	249.92933	1255.44693	850.66856	248.51845	1302.17392	1103.05992	242.19839	1197.25296	1112.73743	451.19514	1395.0589	1010.25787	504.42959	1209.692	999.05754	516.20571	1065.09766	1002.82249	511.60625	929.87846	1017.73697	426.61537	794.49707	1110.9549	481.54888	769.18655	1049.57626	476.35883	741.36353	1114.0554	51.61081	1404.31061	1004.14207	-14.55288	1212.45415	985.53642	-35.3242	1074.08035	949.40804	-37.68438	969.69193	941.52237	25.1215	808.16444	1048.88672	-18.67557	790.03014	975.73479	-32.43289	759.05258	1031.01799	346.30714	954.87442	1076.03653	111.93319	954.79118	1062.05963	321.42189	970.91095	869.59435	144.27573	967.93907	875.32066	359.20742	691.92184	881.08719	352.39769	483.90743	916.20171	311.98713	301.48214	907.57767	303.21472	135.28429	814.99535	235.13247	68.32489	741.15433	254.96693	43.43041	938.01682	92.92631	652.64999	967.92572	73.81938	494.28436	1115.28435	117.62419	280.00914	1180.30304	82.86233	104.96494	1143.44467	144.04872	47.51451	1104.69246	96.4699	65.69179	1298.91739
268	8.91	309.94354	1496.65848	1211.90125	140.3744	1485.77591	1197.27394	327.4625	1589.90662	1094.81102	133.34064	1581.61591	1078.35327	322.82169	1366.7659	1078.67088	173.42348	1360.28625	1082.28661	316.10706	1422.63245	930.24635	157.85353	1417.56714	934.09653	246.81116	1253.66882	865.97404	246.54045	1297.52869	1116.81557	240.4987	1192.56348	1126.23863	448.86066	1390.83496	1024.07127	501.54434	1205.44235	1010.16006	512.50507	1060.59525	1012.14989	507.27272	925.28	1024.6981	420.69916	788.24585	1113.96744	476.40614	764.12643	1052.89795	470.25379	734.90913	1116.62781	48.57588	1399.62692	1019.73145	-15.8186	1206.76048	1001.52466	-35.50575	1068.1002	965.86197	-37.36149	964.02458	957.54227	27.3473	801.88965	1062.87964	-17.30651	784.11957	990.16327	-30.27636	752.73994	1045.40451	344.87267	953.22342	1089.28978	110.41353	952.44614	1076.80092	318.45724	970.31891	883.68752	141.70946	966.65001	889.78348	357.57656	692.56378	891.38168	351.9825	484.18213	923.80753	312.23331	301.54129	912.57889	302.98782	137.1524	816.82999	234.6524	71.27556	742.12807	255.13178	43.38348	938.36037	92.60386	650.71205	982.35672	75.90496	492.42519	1129.79721	122.7989	282.58001	1204.83253	87.9723	105.47844	1178.65601	148.16945	46.34881	1140.92087	107.46721	74.39357	1335.6778
269	8.943	303.41589	1496.17966	1230.04204	134.4092	1482.47543	1213.59612	320.83347	1590.16312	1113.74161	127.12135	1578.23364	1094.66454	320.0201	1360.96268	1092.72972	170.6185	1354.77158	1096.87233	312.26255	1421.01013	946.6626	153.74335	1414.94553	950.93994	242.97241	1252.23129	881.99654	244.11825	1292.3645	1130.79926	238.33889	1187.612	1141.29974	445.81692	1386.59042	1038.56224	497.93709	1201.2693	1022.04407	508.17665	1056.16707	1023.32306	503.03783	920.92575	1033.03078	415.20168	781.54411	1117.34901	472.37438	759.06235	1057.05757	464.81354	728.38722	1119.92813	44.8495	1394.19754	1036.03027	-17.62859	1200.03525	1018.54073	-35.7207	1061.04065	984.20349	-37.14051	957.34482	975.27283	30.03087	794.43466	1077.42828	-15.9235	777.1769	1005.41489	-27.74573	745.22774	1060.63316	343.15193	951.78154	1103.41362	108.68319	950.03212	1092.57294	315.27878	970.18196	897.91611	138.4526	965.57655	905.3595	355.33295	693.38936	902.11578	351.3002	484.6056	931.79436	311.79089	301.69266	917.60422	302.57917	139.4025	818.927	234.04396	74.63295	743.36533	255.3229	43.37655	938.78906	92.03502	648.10646	997.0639	78.09866	489.67991	1143.57254	127.21942	284.55648	1227.14401	92.76196	106.39437	1209.53079	152.44723	46.1347	1172.84988	116.86882	79.94392	1367.47055
270	8.977	296.42632	1495.55328	1249.34944	127.61147	1479.10446	1230.84557	313.5531	1589.80804	1132.99599	120.22335	1574.8085	1111.75362	316.40413	1356.99951	1107.1312	167.34724	1349.785	1112.30873	307.77758	1418.9444	962.64259	149.35637	1411.42105	967.67807	238.83142	1249.44397	899.01741	241.37379	1288.24982	1145.60677	236.00563	1183.71094	1157.58018	442.07737	1383.04214	1052.91	493.57964	1197.73582	1036.07407	502.97314	1052.3542	1036.00372	498.53683	917.48146	1042.81158	410.1664	775.27306	1121.60095	468.94489	754.74434	1062.0385	460.30609	722.27821	1123.92593	40.77725	1388.13736	1052.11197	-19.1321	1193.03482	1037.37831	-35.54202	1053.35625	1004.77959	-36.80454	950.50026	995.0824	33.09984	786.39107	1093.09639	-14.80278	769.91814	1021.78131	-24.88246	737.10854	1076.88965	340.92762	950.27451	1118.52097	106.52183	947.46796	1109.75082	311.32887	969.99115	913.33664	134.28848	964.52049	921.73958	352.00794	694.37012	913.8044	350.46635	485.17326	940.31982	311.68562	302.11142	923.08853	302.40904	141.83331	821.34285	233.76471	78.43367	744.7879	255.54371	43.37489	939.33083	92.44802	646.47781	1011.08887	80.70494	486.95343	1158.42911	130.84862	284.91705	1246.70601	97.02754	105.97727	1234.17404	156.68437	44.85545	1199.11987	121.59369	84.16484	1392.97546
